<?xml version="1.0" standalone="no"?>
<!DOCTYPE svg PUBLIC "-//W3C//DTD SVG 20010904//EN"
 "http://www.w3.org/TR/2001/REC-SVG-20010904/DTD/svg10.dtd">
<svg version="1.0" xmlns="http://www.w3.org/2000/svg"
 width="491.000000pt" height="491.000000pt" viewBox="0 0 491.000000 491.000000"
 preserveAspectRatio="xMidYMid meet">
<metadata>
Created by potrace 1.11, written by Peter Selinger 2001-2013
</metadata>
<g transform="translate(0.000000,491.000000) scale(0.100000,-0.100000)"
fill="#000000" stroke="none">
<path d="M2242 4858 c-162 -18 -321 -93 -440 -207 -23 -23 -47 -41 -53 -41
-16 0 -194 -83 -243 -113 -251 -154 -394 -275 -562 -478 -153 -186 -295 -473
-359 -729 -29 -115 -33 -134 -51 -285 -5 -45 -6 -353 -1 -362 3 -5 8 -39 11
-78 4 -38 11 -86 16 -105 5 -19 21 -82 35 -139 14 -58 44 -150 66 -205 40
-102 129 -278 155 -307 8 -8 14 -19 14 -23 0 -21 152 -211 248 -310 201 -206
460 -371 732 -467 52 -18 97 -36 100 -40 3 -4 20 -13 39 -21 l34 -14 -94 -80
c-166 -143 -214 -173 -360 -228 -27 -11 -52 -28 -60 -42 -29 -56 -7 -158 48
-220 43 -49 119 -84 238 -108 39 -8 202 -8 284 0 56 5 63 4 58 -10 -6 -16 11
-66 22 -66 3 0 38 -29 76 -65 72 -66 96 -75 147 -56 36 14 75 59 94 107 l17
45 -34 32 c-19 18 -44 40 -57 48 -21 16 -21 16 21 39 86 48 377 238 524 342
227 161 392 295 573 465 41 38 46 41 61 27 18 -16 61 -14 97 5 33 18 71 69 83
113 9 35 8 43 -5 50 -16 9 -22 38 -8 38 14 0 189 182 255 265 224 284 364 632
402 1005 6 59 7 306 1 355 -13 110 -19 148 -31 210 -74 364 -254 700 -517 965
-109 109 -129 126 -258 219 -124 90 -240 154 -380 211 -30 12 -64 26 -75 30
-30 13 -146 49 -175 54 -130 27 -186 40 -190 46 -3 4 -27 21 -55 38 -64 39
-189 81 -263 88 -106 10 -117 10 -180 2z"/>
</g>
</svg>
